<svg id="图层_1" data-name="图层 1" xmlns="http://www.w3.org/2000/svg" viewBox="0 0 40 40"><defs><style>.cls-1,.cls-2,.cls-4,.cls-5{fill:none;stroke:#feac2b;}.cls-1,.cls-5{stroke-linecap:round;}.cls-1,.cls-2{stroke-miterlimit:10;}.cls-2,.cls-4,.cls-5{stroke-width:0.5px;}.cls-3{fill:#feac2b;}.cls-4{stroke-miterlimit:1.67;}.cls-5{stroke-linejoin:round;}</style></defs><path class="cls-1" d="M2.42,14.73a18,18,0,0,1,34.49,0"/><path class="cls-1" d="M37.36,23.46A18,18,0,0,1,2,23.46"/><path class="cls-2" d="M14.35,21.25V20.11a2.86,2.86,0,0,1,1.31-2.41,2.32,2.32,0,0,1,1.26-.39,2.38,2.38,0,0,1,1.45.55,3.1,3.1,0,0,1,1.18,2.44v.95"/><ellipse class="cls-2" cx="10.28" cy="19.39" rx="2.46" ry="2.16"/><ellipse class="cls-2" cx="28.24" cy="19.39" rx="2.46" ry="2.16"/><path class="cls-2" d="M24.53,17.73a3.13,3.13,0,0,0-3.62.15l3.38,2.62s-.81,2-3.29.41"/><path class="cls-2" d="M37,19.16l1.55-1.44a2.67,2.67,0,0,0-3.83.71c-1.53,2.29,2.76,5.25,4.58,1"/><rect class="cls-3" x="0.47" y="17.47" width="0.6" height="3.78"/><circle class="cls-3" cx="0.77" cy="16.31" r="0.44"/><rect class="cls-3" x="32.23" y="13.9" width="0.63" height="7.4"/><path class="cls-3" d="M6.2,20.23s0,0,0,0l.44.3h0a2.6,2.6,0,0,1-.87.81,2.41,2.41,0,0,1-2.4,0,2.47,2.47,0,0,1-.88-.88,2.4,2.4,0,0,1,0-2.43,2.37,2.37,0,0,1,.88-.87,2.34,2.34,0,0,1,1.21-.33,2.4,2.4,0,0,1,1.2.32,2.36,2.36,0,0,1,.86.83h0a0,0,0,0,1,0,0l-.46.29h0a2,2,0,0,0-.67-.67,1.93,1.93,0,0,0-.9-.22,1.79,1.79,0,0,0-.93.24,1.7,1.7,0,0,0-.66.67,1.85,1.85,0,0,0-.24.94,1.9,1.9,0,0,0,.24,1,1.7,1.7,0,0,0,.66.67,1.79,1.79,0,0,0,.93.24,1.83,1.83,0,0,0,.9-.23,2,2,0,0,0,.69-.65Z"/><rect class="cls-3" x="7.7" y="27.35" width="5.19" height="0.09"/><rect class="cls-3" x="26.54" y="27.35" width="5.19" height="0.09"/><path class="cls-3" d="M14.85,30.35a.4.4,0,0,1-.29.1h-.2a.42.42,0,0,1-.29-.1.4.4,0,0,1-.1-.3V25a.35.35,0,0,1,.39-.39h.2a.37.37,0,0,1,.29.1A.38.38,0,0,1,15,25v.92l-.22.7.22.73v2.69A.41.41,0,0,1,14.85,30.35Zm2.33-5.53a2.13,2.13,0,0,1,.72.77,2.29,2.29,0,0,1,.26,1.07,2.25,2.25,0,0,1-.26,1.06,2.06,2.06,0,0,1-.72.77,2,2,0,0,1-1,.29,1.48,1.48,0,0,1-1-.33,2.08,2.08,0,0,1-.61-.82,2.48,2.48,0,0,1,0-1.95,2.08,2.08,0,0,1,.61-.82,1.47,1.47,0,0,1,1-.32A2,2,0,0,1,17.18,24.82Zm-1.75.75A1,1,0,0,0,15,26a1.33,1.33,0,0,0-.15.65,1.38,1.38,0,0,0,.15.65,1,1,0,0,0,.41.44,1.28,1.28,0,0,0,.63.15.92.92,0,0,0,.53-.16A1,1,0,0,0,17,27.3a1.47,1.47,0,0,0,.14-.64A1.51,1.51,0,0,0,17,26a1.06,1.06,0,0,0-.38-.43.9.9,0,0,0-.53-.16A1.28,1.28,0,0,0,15.43,25.57Z"/><path class="cls-3" d="M19.18,26.12a2.86,2.86,0,0,1,.64-1,2,2,0,0,1,1-.52.34.34,0,0,1,.29.06.33.33,0,0,1,.11.28v.2a.41.41,0,0,1-.08.27.43.43,0,0,1-.27.13,1.18,1.18,0,0,0-.51.18.74.74,0,0,0-.3.39,1.71,1.71,0,0,0-.1.65l-1,.69A3.71,3.71,0,0,1,19.18,26.12Zm.66,2.47a.37.37,0,0,1-.29.1h-.2a.38.38,0,0,1-.29-.1.37.37,0,0,1-.1-.29V25a.35.35,0,0,1,.39-.39h.2a.37.37,0,0,1,.29.1.38.38,0,0,1,.1.29V28.3A.37.37,0,0,1,19.84,28.59Z"/><path class="cls-3" d="M22.64,28.49a2.09,2.09,0,0,1-.78-.78,2,2,0,0,1-.28-1.05,2.1,2.1,0,0,1,.29-1.07,2.18,2.18,0,0,1,.77-.77,2.17,2.17,0,0,1,2.13,0,2.18,2.18,0,0,1,.77.77,2.09,2.09,0,0,1,.28,1.07,2,2,0,0,1-.28,1.05,2.13,2.13,0,0,1-.77.78,2.1,2.1,0,0,1-1.07.29A2.06,2.06,0,0,1,22.64,28.49Zm1.65-.77a1,1,0,0,0,.39-.43,1.46,1.46,0,0,0,.14-.63,1.44,1.44,0,0,0-.14-.64,1,1,0,0,0-.39-.42,1,1,0,0,0-.59-.16,1.07,1.07,0,0,0-.59.16,1,1,0,0,0-.39.42,1.44,1.44,0,0,0-.13.64,1.45,1.45,0,0,0,.13.63,1,1,0,0,0,1,.58A1.13,1.13,0,0,0,24.29,27.72Z"/><path class="cls-4" d="M21.48,11.45a.69.69,0,1,0-.69-.69A.69.69,0,0,0,21.48,11.45Z"/><path class="cls-5" d="M18.19,11.69l1.1-.38,1.5.72-1.5,1.12,1.5,1-.95,1.28"/><path class="cls-5" d="M21.38,12.36l.37.2.82-.77"/><path class="cls-5" d="M18.85,13.71l-.4.54L17.1,15"/></svg>