<?xml version="1.0" standalone="no"?><!DOCTYPE svg PUBLIC "-//W3C//DTD SVG 1.1//EN" "http://www.w3.org/Graphics/SVG/1.1/DTD/svg11.dtd"><svg t="1770277829901" class="icon" viewBox="0 0 1024 1024" version="1.1" xmlns="http://www.w3.org/2000/svg" p-id="14714" xmlns:xlink="http://www.w3.org/1999/xlink" width="200" height="200"><path d="M170.666667 861.781333V162.218667c0-23.509333 13.397333-45.44 34.858666-55.552l408.96 405.333333-408.96 405.333333A61.824 61.824 0 0 1 170.666667 861.781333z" fill="#00D8FF" p-id="14715"></path><path d="M744.192 640.469333L297.130667 896.256l352.64-349.397333 94.421333 93.610666z" fill="#FF003C" p-id="14716"></path><path d="M883.242667 462.933333c15.402667 11.776 24.32 29.610667 24.32 49.066667 0.426667 19.072-8.533333 36.864-23.509334 48.64l-95.232 54.314667L685.013333 512l103.808-102.954667 94.421334 53.930667z" fill="#FFCA00" p-id="14717"></path><path d="M297.130667 127.744l447.104 255.786667-94.464 93.610666-352.64-349.397333z" fill="#00F765" p-id="14718"></path></svg>